<?xml version="1.0" standalone="yes"?>

<svg version="1.1" viewBox="0.0 0.0 960.0 720.0" fill="none" stroke="none" stroke-linecap="square" stroke-miterlimit="10" xmlns="http://www.w3.org/2000/svg" xmlns:xlink="http://www.w3.org/1999/xlink"><clipPath id="p.0"><path d="m0 0l960.0 0l0 720.0l-960.0 0l0 -720.0z" clip-rule="nonzero"></path></clipPath><g clip-path="url(#p.0)"><path fill="#000000" fill-opacity="0.0" d="m0 0l960.0 0l0 720.0l-960.0 0z" fill-rule="nonzero"></path><path fill="#fff2cc" d="m379.09973 209.43832l135.4646 0l0 39.590546l-135.4646 0z" fill-rule="nonzero"></path><path stroke="#000000" stroke-width="1.0" stroke-linejoin="round" stroke-linecap="butt" d="m379.09973 209.43832l135.4646 0l0 39.590546l-135.4646 0z" fill-rule="nonzero"></path><path fill="#000000" d="m436.7007 231.35832l2.671875 0.84375q-0.609375 2.21875 -2.046875 3.3125q-1.421875 1.078125 -3.609375 1.078125q-2.703125 0 -4.453125 -1.84375q-1.734375 -1.859375 -1.734375 -5.078125q0 -3.390625 1.75 -5.265625q1.75 -1.875 4.609375 -1.875q2.5 0 4.046875 1.46875q0.9375 0.875 1.390625 2.5l-2.71875 0.65625q-0.234375 -1.0625 -1.0 -1.671875q-0.765625 -0.609375 -1.859375 -0.609375q-1.515625 0 -2.453125 1.09375q-0.9375 1.078125 -0.9375 3.5q0 2.578125 0.921875 3.6875q0.921875 1.09375 2.40625 1.09375q1.109375 0 1.890625 -0.6875q0.78125 -0.703125 1.125 -2.203125zm4.7698364 -8.59375l5.015625 0q1.703125 0 2.59375 0.25q1.1875 0.359375 2.046875 1.265625q0.859375 0.890625 1.296875 2.203125q0.453125 1.296875 0.453125 3.203125q0 1.6875 -0.421875 2.890625q-0.515625 1.484375 -1.453125 2.40625q-0.71875 0.703125 -1.9375 1.09375q-0.90625 0.28125 -2.421875 0.28125l-5.171875 0l0 -13.59375zm2.75 2.296875l0 9.0l2.046875 0q1.140625 0 1.65625 -0.125q0.671875 -0.171875 1.109375 -0.5625q0.4375 -0.40625 0.71875 -1.3125q0.28125 -0.921875 0.28125 -2.5q0 -1.578125 -0.28125 -2.421875q-0.28125 -0.84375 -0.78125 -1.3125q-0.5 -0.46875 -1.265625 -0.640625q-0.578125 -0.125 -2.25 -0.125l-1.234375 0zm10.754181 11.296875l0 -13.59375l2.671875 0l5.578125 9.078125l0 -9.078125l2.546875 0l0 13.59375l-2.765625 0l-5.46875 -8.875l0 8.875l-2.5625 0z" fill-rule="nonzero"></path><path fill="#cfe2f3" d="m134.7559 513.79004l0 0c0 -49.76651 149.7484 -90.11026 334.4724 -90.11026l0 0c184.72406 0 334.47247 40.34375 334.47247 90.11026l0 0c0 49.76648 -149.74841 90.11023 -334.47247 90.11023l0 0c-184.72403 0 -334.4724 -40.34375 -334.4724 -90.11023z" fill-rule="nonzero"></path><path stroke="#cfe2f3" stroke-width="2.0" stroke-linejoin="round" stroke-linecap="butt" d="m134.7559 513.79004l0 0c0 -49.76651 149.7484 -90.11026 334.4724 -90.11026l0 0c184.72406 0 334.47247 40.34375 334.47247 90.11026l0 0c0 49.76648 -149.74841 90.11023 -334.47247 90.11023l0 0c-184.72403 0 -334.4724 -40.34375 -334.4724 -90.11023z" fill-rule="nonzero"></path><path fill="#fff2cc" d="m379.09973 300.08923l135.4646 0l0 39.590546l-135.4646 0z" fill-rule="nonzero"></path><path stroke="#000000" stroke-width="1.0" stroke-linejoin="round" stroke-linecap="butt" d="m379.09973 300.08923l135.4646 0l0 39.590546l-135.4646 0z" fill-rule="nonzero"></path><path fill="#000000" d="m407.9233 327.00925l-2.609375 0l0 -5.03125q0 -1.59375 -0.171875 -2.0625q-0.15625 -0.46875 -0.53125 -0.71875q-0.375 -0.265625 -0.90625 -0.265625q-0.6875 0 -1.234375 0.375q-0.53125 0.359375 -0.734375 0.984375q-0.1875 0.609375 -0.1875 2.25l0 4.46875l-2.609375 0l0 -9.859375l2.421875 0l0 1.453125q1.296875 -1.671875 3.25 -1.671875q0.859375 0 1.578125 0.3125q0.71875 0.3125 1.078125 0.796875q0.359375 0.484375 0.5 1.09375q0.15625 0.609375 0.15625 1.75l0 6.125zm8.130371 -3.140625l2.609375 0.4375q-0.5 1.4375 -1.59375 2.1875q-1.078125 0.734375 -2.703125 0.734375q-2.5625 0 -3.796875 -1.671875q-0.96875 -1.34375 -0.96875 -3.40625q0 -2.4375 1.265625 -3.828125q1.28125 -1.390625 3.25 -1.390625q2.1875 0 3.453125 1.453125q1.28125 1.453125 1.234375 4.453125l-6.53125 0q0.015625 1.15625 0.625 1.8125q0.609375 0.640625 1.5 0.640625q0.609375 0 1.03125 -0.328125q0.421875 -0.34375 0.625 -1.09375zm0.15625 -2.625q-0.03125 -1.140625 -0.59375 -1.71875q-0.546875 -0.59375 -1.34375 -0.59375q-0.859375 0 -1.40625 0.625q-0.5625 0.609375 -0.546875 1.6875l3.890625 0zm3.266327 5.765625l3.5625 -5.078125l-3.40625 -4.78125l3.171875 0l1.75 2.71875l1.828125 -2.71875l3.0625 0l-3.328125 4.671875l3.640625 5.1875l-3.203125 0l-2.0 -3.046875l-2.03125 3.046875l-3.046875 0zm16.141357 -9.859375l0 2.078125l-1.78125 0l0 3.984375q0 1.203125 0.046875 1.40625q0.0625 0.1875 0.234375 0.328125q0.1875 0.125 0.453125 0.125q0.359375 0 1.046875 -0.25l0.21875 2.015625q-0.90625 0.390625 -2.0625 0.390625q-0.703125 0 -1.265625 -0.234375q-0.5625 -0.234375 -0.828125 -0.609375q-0.265625 -0.375 -0.375 -1.015625q-0.078125 -0.453125 -0.078125 -1.84375l0 -4.296875l-1.203125 0l0 -2.078125l1.203125 0l0 -1.953125l2.609375 -1.515625l0 3.46875l1.78125 0zm1.415802 6.234375l0 -2.609375l5.109375 0l0 2.609375l-5.109375 0zm8.993927 3.625l-2.609375 0l0 -9.859375l2.421875 0l0 1.40625q0.625 -0.984375 1.109375 -1.296875q0.5 -0.328125 1.140625 -0.328125q0.890625 0 1.71875 0.5l-0.8125 2.265625q-0.65625 -0.421875 -1.21875 -0.421875q-0.546875 0 -0.9375 0.296875q-0.375 0.296875 -0.59375 1.09375q-0.21875 0.78125 -0.21875 3.296875l0 3.046875zm4.166504 -5.0625q0 -1.296875 0.640625 -2.515625q0.640625 -1.21875 1.8125 -1.859375q1.171875 -0.640625 2.609375 -0.640625q2.25 0 3.671875 1.453125q1.421875 1.453125 1.421875 3.671875q0 2.234375 -1.4375 3.703125q-1.4375 1.46875 -3.625 1.46875q-1.359375 0 -2.59375 -0.609375q-1.21875 -0.609375 -1.859375 -1.796875q-0.640625 -1.1875 -0.640625 -2.875zm2.671875 0.140625q0 1.46875 0.6875 2.25q0.703125 0.765625 1.71875 0.765625q1.015625 0 1.703125 -0.765625q0.703125 -0.78125 0.703125 -2.265625q0 -1.453125 -0.703125 -2.234375q-0.6875 -0.78125 -1.703125 -0.78125q-1.015625 0 -1.71875 0.78125q-0.6875 0.78125 -0.6875 2.25zm15.802246 4.921875l0 -1.46875q-0.53125 0.78125 -1.40625 1.234375q-0.875 0.453125 -1.859375 0.453125q-0.984375 0 -1.78125 -0.4375q-0.78125 -0.4375 -1.140625 -1.21875q-0.34375 -0.796875 -0.34375 -2.1875l0 -6.234375l2.609375 0l0 4.53125q0 2.078125 0.140625 2.546875q0.140625 0.46875 0.515625 0.75q0.390625 0.265625 0.96875 0.265625q0.671875 0 1.203125 -0.359375q0.53125 -0.375 0.71875 -0.90625q0.1875 -0.546875 0.1875 -2.671875l0 -4.15625l2.609375 0l0 9.859375l-2.421875 0zm9.427216 -9.859375l0 2.078125l-1.78125 0l0 3.984375q0 1.203125 0.046875 1.40625q0.0625 0.1875 0.234375 0.328125q0.1875 0.125 0.453125 0.125q0.359375 0 1.046875 -0.25l0.21875 2.015625q-0.90625 0.390625 -2.0625 0.390625q-0.703125 0 -1.265625 -0.234375q-0.5625 -0.234375 -0.828125 -0.609375q-0.265625 -0.375 -0.375 -1.015625q-0.078125 -0.453125 -0.078125 -1.84375l0 -4.296875l-1.203125 0l0 -2.078125l1.203125 0l0 -1.953125l2.609375 -1.515625l0 3.46875l1.78125 0zm7.400177 6.71875l2.609375 0.4375q-0.5 1.4375 -1.59375 2.1875q-1.078125 0.734375 -2.703125 0.734375q-2.5625 0 -3.796875 -1.671875q-0.96875 -1.34375 -0.96875 -3.40625q0 -2.4375 1.265625 -3.828125q1.28125 -1.390625 3.25 -1.390625q2.1875 0 3.453125 1.453125q1.28125 1.453125 1.234375 4.453125l-6.53125 0q0.015625 1.15625 0.625 1.8125q0.609375 0.640625 1.5 0.640625q0.609375 0 1.03125 -0.328125q0.421875 -0.34375 0.625 -1.09375zm0.15625 -2.625q-0.03125 -1.140625 -0.59375 -1.71875q-0.546875 -0.59375 -1.34375 -0.59375q-0.859375 0 -1.40625 0.625q-0.5625 0.609375 -0.546875 1.6875l3.890625 0zm7.0163574 5.765625l-2.609375 0l0 -9.859375l2.421875 0l0 1.40625q0.625 -0.984375 1.109375 -1.296875q0.5 -0.328125 1.140625 -0.328125q0.890625 0 1.71875 0.5l-0.8125 2.265625q-0.65625 -0.421875 -1.21875 -0.421875q-0.546875 0 -0.9375 0.296875q-0.375 0.296875 -0.59375 1.09375q-0.21875 0.78125 -0.21875 3.296875l0 3.046875z" fill-rule="nonzero"></path><path fill="#000000" fill-opacity="0.0" d="m446.83203 249.02887l0 51.055115" fill-rule="nonzero"></path><path stroke="#000000" stroke-width="2.0" stroke-linejoin="round" stroke-linecap="butt" d="m446.83203 249.02887l0 39.055115" fill-rule="evenodd"></path><path fill="#000000" stroke="#000000" stroke-width="2.0" stroke-linecap="butt" d="m443.52856 288.08398l3.3034668 9.076202l3.3034668 -9.076202z" fill-rule="evenodd"></path><path fill="#fff2cc" d="m379.09973 470.97113l135.4646 0l0 39.590546l-135.4646 0z" fill-rule="nonzero"></path><path stroke="#000000" stroke-width="1.0" stroke-linejoin="round" stroke-linecap="butt" d="m379.09973 470.97113l135.4646 0l0 39.590546l-135.4646 0z" fill-rule="nonzero"></path><path fill="#000000" d="m411.07812 495.33112l-2.203125 0l0 -4.234375q0 -1.34375 -0.140625 -1.734375q-0.140625 -0.40625 -0.453125 -0.625q-0.3125 -0.21875 -0.765625 -0.21875q-0.5625 0 -1.015625 0.3125q-0.453125 0.3125 -0.625 0.828125q-0.171875 0.515625 -0.171875 1.90625l0 3.765625l-2.1875 0l0 -8.296875l2.03125 0l0 1.21875q1.09375 -1.40625 2.734375 -1.40625q0.734375 0 1.328125 0.265625q0.609375 0.25 0.90625 0.65625q0.3125 0.40625 0.4375 0.921875q0.125 0.515625 0.125 1.484375l0 5.15625zm7.0234375 -2.640625l2.1875 0.359375q-0.421875 1.203125 -1.328125 1.84375q-0.90625 0.625 -2.28125 0.625q-2.15625 0 -3.203125 -1.421875q-0.8125 -1.125 -0.8125 -2.859375q0 -2.0625 1.078125 -3.21875q1.078125 -1.171875 2.71875 -1.171875q1.859375 0 2.921875 1.21875q1.078125 1.21875 1.03125 3.75l-5.5 0q0.015625 0.96875 0.515625 1.515625q0.515625 0.546875 1.28125 0.546875q0.515625 0 0.859375 -0.28125q0.359375 -0.28125 0.53125 -0.90625zm0.125 -2.21875q-0.015625 -0.953125 -0.484375 -1.453125q-0.46875 -0.5 -1.140625 -0.5q-0.71875 0 -1.1875 0.53125q-0.46875 0.515625 -0.46875 1.421875l3.28125 0zm2.9140625 4.859375l3.0 -4.28125l-2.875 -4.015625l2.6875 0l1.46875 2.28125l1.546875 -2.28125l2.578125 0l-2.8125 3.921875l3.0625 4.375l-2.6875 0l-1.6875 -2.578125l-1.703125 2.578125l-2.578125 0zm13.7578125 -8.296875l0 1.75l-1.5 0l0 3.34375q0 1.015625 0.046875 1.1875q0.046875 0.15625 0.1875 0.265625q0.15625 0.109375 0.375 0.109375q0.3125 0 0.890625 -0.203125l0.1875 1.703125q-0.765625 0.328125 -1.734375 0.328125q-0.59375 0 -1.078125 -0.203125q-0.46875 -0.203125 -0.703125 -0.515625q-0.21875 -0.3125 -0.296875 -0.859375q-0.078125 -0.375 -0.078125 -1.546875l0 -3.609375l-1.0 0l0 -1.75l1.0 0l0 -1.65625l2.203125 -1.28125l0 2.9375l1.5 0zm1.28125 5.234375l0 -2.1875l4.3125 0l0 2.1875l-4.3125 0zm10.375 0.421875l2.1875 0.359375q-0.421875 1.203125 -1.328125 1.84375q-0.90625 0.625 -2.28125 0.625q-2.15625 0 -3.203125 -1.421875q-0.8125 -1.125 -0.8125 -2.859375q0 -2.0625 1.078125 -3.21875q1.078125 -1.171875 2.71875 -1.171875q1.859375 0 2.921875 1.21875q1.078125 1.21875 1.03125 3.75l-5.5 0q0.015625 0.96875 0.515625 1.515625q0.515625 0.546875 1.28125 0.546875q0.515625 0 0.859375 -0.28125q0.359375 -0.28125 0.53125 -0.90625zm0.125 -2.21875q-0.015625 -0.953125 -0.484375 -1.453125q-0.46875 -0.5 -1.140625 -0.5q-0.71875 0 -1.1875 0.53125q-0.46875 0.515625 -0.46875 1.421875l3.28125 0zm11.5234375 4.859375l-2.203125 0l0 -4.234375q0 -1.34375 -0.140625 -1.734375q-0.140625 -0.40625 -0.453125 -0.625q-0.3125 -0.21875 -0.765625 -0.21875q-0.5625 0 -1.015625 0.3125q-0.453125 0.3125 -0.625 0.828125q-0.171875 0.515625 -0.171875 1.90625l0 3.765625l-2.1875 0l0 -8.296875l2.03125 0l0 1.21875q1.09375 -1.40625 2.734375 -1.40625q0.734375 0 1.328125 0.265625q0.609375 0.25 0.90625 0.65625q0.3125 0.40625 0.4375 0.921875q0.125 0.515625 0.125 1.484375l0 5.15625zm2.0234375 0.546875l2.5 0.3125q0.0625 0.4375 0.296875 0.59375q0.3125 0.234375 0.984375 0.234375q0.859375 0 1.28125 -0.25q0.296875 -0.171875 0.4375 -0.5625q0.109375 -0.265625 0.109375 -1.015625l0 -1.203125q-0.984375 1.34375 -2.484375 1.34375q-1.671875 0 -2.65625 -1.421875q-0.765625 -1.109375 -0.765625 -2.78125q0 -2.078125 1.0 -3.171875q1.015625 -1.109375 2.5 -1.109375q1.546875 0 2.546875 1.34375l0 -1.15625l2.046875 0l0 7.4375q0 1.484375 -0.25 2.203125q-0.234375 0.734375 -0.671875 1.140625q-0.4375 0.421875 -1.171875 0.65625q-0.71875 0.234375 -1.84375 0.234375q-2.109375 0 -3.0 -0.734375q-0.875 -0.71875 -0.875 -1.828125q0 -0.109375 0.015625 -0.265625zm1.953125 -4.875q0 1.328125 0.515625 1.9375q0.515625 0.609375 1.265625 0.609375q0.796875 0 1.34375 -0.625q0.5625 -0.625 0.5625 -1.859375q0 -1.296875 -0.53125 -1.921875q-0.53125 -0.625 -1.34375 -0.625q-0.78125 0 -1.296875 0.625q-0.515625 0.609375 -0.515625 1.859375zm12.8203125 1.6875l2.1875 0.359375q-0.421875 1.203125 -1.328125 1.84375q-0.90625 0.625 -2.28125 0.625q-2.15625 0 -3.203125 -1.421875q-0.8125 -1.125 -0.8125 -2.859375q0 -2.0625 1.078125 -3.21875q1.078125 -1.171875 2.71875 -1.171875q1.859375 0 2.921875 1.21875q1.078125 1.21875 1.03125 3.75l-5.5 0q0.015625 0.96875 0.515625 1.515625q0.515625 0.546875 1.28125 0.546875q0.515625 0 0.859375 -0.28125q0.359375 -0.28125 0.53125 -0.90625zm0.125 -2.21875q-0.015625 -0.953125 -0.484375 -1.453125q-0.46875 -0.5 -1.140625 -0.5q-0.71875 0 -1.1875 0.53125q-0.46875 0.515625 -0.46875 1.421875l3.28125 0zm3.9765625 4.859375l0 -11.453125l2.1875 0l0 11.453125l-2.1875 0zm3.6640625 -2.375l2.203125 -0.328125q0.140625 0.640625 0.5625 0.96875q0.4375 0.328125 1.21875 0.328125q0.84375 0 1.28125 -0.3125q0.28125 -0.21875 0.28125 -0.578125q0 -0.25 -0.15625 -0.421875q-0.15625 -0.15625 -0.734375 -0.28125q-2.65625 -0.59375 -3.359375 -1.078125q-0.984375 -0.671875 -0.984375 -1.859375q0 -1.078125 0.84375 -1.8125q0.859375 -0.734375 2.640625 -0.734375q1.703125 0 2.53125 0.5625q0.828125 0.546875 1.140625 1.625l-2.0625 0.390625q-0.140625 -0.484375 -0.515625 -0.734375q-0.359375 -0.265625 -1.046875 -0.265625q-0.875 0 -1.25 0.234375q-0.25 0.171875 -0.25 0.453125q0 0.234375 0.21875 0.390625q0.296875 0.21875 2.046875 0.625q1.765625 0.390625 2.453125 0.96875q0.6875 0.59375 0.6875 1.640625q0 1.140625 -0.953125 1.96875q-0.953125 0.8125 -2.8125 0.8125q-1.703125 0 -2.6875 -0.6875q-0.984375 -0.6875 -1.296875 -1.875z" fill-rule="nonzero"></path><path fill="#fff2cc" d="m219.6798 470.97113l135.46455 0l0 39.590546l-135.46455 0z" fill-rule="nonzero"></path><path stroke="#000000" stroke-width="1.0" stroke-linejoin="round" stroke-linecap="butt" d="m219.6798 470.97113l135.46455 0l0 39.590546l-135.46455 0z" fill-rule="nonzero"></path><path fill="#000000" d="m260.1191 495.33112l-2.203125 0l0 -4.234375q0 -1.34375 -0.140625 -1.734375q-0.140625 -0.40625 -0.453125 -0.625q-0.3125 -0.21875 -0.765625 -0.21875q-0.5625 0 -1.015625 0.3125q-0.453125 0.3125 -0.625 0.828125q-0.171875 0.515625 -0.171875 1.90625l0 3.765625l-2.1875 0l0 -8.296875l2.03125 0l0 1.21875q1.09375 -1.40625 2.734375 -1.40625q0.734375 0 1.328125 0.265625q0.609375 0.25 0.90625 0.65625q0.3125 0.40625 0.4375 0.921875q0.125 0.515625 0.125 1.484375l0 5.15625zm7.0234375 -2.640625l2.1875 0.359375q-0.421875 1.203125 -1.328125 1.84375q-0.90625 0.625 -2.28125 0.625q-2.15625 0 -3.203125 -1.421875q-0.8125 -1.125 -0.8125 -2.859375q0 -2.0625 1.078125 -3.21875q1.078125 -1.171875 2.71875 -1.171875q1.859375 0 2.921875 1.21875q1.078125 1.21875 1.03125 3.75l-5.5 0q0.015625 0.96875 0.515625 1.515625q0.515625 0.546875 1.28125 0.546875q0.515625 0 0.859375 -0.28125q0.359375 -0.28125 0.53125 -0.90625zm0.125 -2.21875q-0.015625 -0.953125 -0.484375 -1.453125q-0.46875 -0.5 -1.140625 -0.5q-0.71875 0 -1.1875 0.53125q-0.46875 0.515625 -0.46875 1.421875l3.28125 0zm2.9140625 4.859375l3.0 -4.28125l-2.875 -4.015625l2.6875 0l1.46875 2.28125l1.546875 -2.28125l2.578125 0l-2.8125 3.921875l3.0625 4.375l-2.6875 0l-1.6875 -2.578125l-1.703125 2.578125l-2.578125 0zm13.7578125 -8.296875l0 1.75l-1.5 0l0 3.34375q0 1.015625 0.046875 1.1875q0.046875 0.15625 0.1875 0.265625q0.15625 0.109375 0.375 0.109375q0.3125 0 0.890625 -0.203125l0.1875 1.703125q-0.765625 0.328125 -1.734375 0.328125q-0.59375 0 -1.078125 -0.203125q-0.46875 -0.203125 -0.703125 -0.515625q-0.21875 -0.3125 -0.296875 -0.859375q-0.078125 -0.375 -0.078125 -1.546875l0 -3.609375l-1.0 0l0 -1.75l1.0 0l0 -1.65625l2.203125 -1.28125l0 2.9375l1.5 0zm1.28125 5.234375l0 -2.1875l4.3125 0l0 2.1875l-4.3125 0zm13.1875 3.0625l-2.046875 0l0 -1.21875q-0.5 0.703125 -1.203125 1.0625q-0.6875 0.34375 -1.390625 0.34375q-1.421875 0 -2.453125 -1.15625q-1.015625 -1.15625 -1.015625 -3.21875q0 -2.109375 0.984375 -3.203125q1.0 -1.09375 2.515625 -1.09375q1.390625 0 2.40625 1.15625l0 -4.125l2.203125 0l0 11.453125zm-5.859375 -4.328125q0 1.328125 0.359375 1.921875q0.53125 0.859375 1.484375 0.859375q0.765625 0 1.296875 -0.640625q0.53125 -0.65625 0.53125 -1.9375q0 -1.421875 -0.515625 -2.046875q-0.515625 -0.640625 -1.328125 -0.640625q-0.78125 0 -1.3125 0.625q-0.515625 0.625 -0.515625 1.859375zm7.5078125 0.0625q0 -1.09375 0.53125 -2.109375q0.546875 -1.03125 1.53125 -1.5625q1.0 -0.546875 2.21875 -0.546875q1.875 0 3.078125 1.21875q1.203125 1.21875 1.203125 3.09375q0 1.875 -1.21875 3.125q-1.203125 1.234375 -3.046875 1.234375q-1.140625 0 -2.1875 -0.515625q-1.03125 -0.515625 -1.578125 -1.515625q-0.53125 -1.0 -0.53125 -2.421875zm2.25 0.109375q0 1.234375 0.578125 1.890625q0.59375 0.65625 1.453125 0.65625q0.859375 0 1.4375 -0.65625q0.59375 -0.65625 0.59375 -1.90625q0 -1.21875 -0.59375 -1.875q-0.578125 -0.65625 -1.4375 -0.65625q-0.859375 0 -1.453125 0.65625q-0.578125 0.65625 -0.578125 1.890625zm7.9453125 4.15625l0 -11.453125l2.1875 0l0 4.125q1.015625 -1.15625 2.40625 -1.15625q1.515625 0 2.5 1.09375q1.0 1.09375 1.0 3.15625q0 2.125 -1.015625 3.28125q-1.0 1.140625 -2.453125 1.140625q-0.703125 0 -1.40625 -0.359375q-0.6875 -0.359375 -1.1875 -1.046875l0 1.21875l-2.03125 0zm2.171875 -4.328125q0 1.28125 0.40625 1.90625q0.578125 0.875 1.515625 0.875q0.734375 0 1.234375 -0.625q0.515625 -0.625 0.515625 -1.953125q0 -1.421875 -0.515625 -2.046875q-0.515625 -0.640625 -1.3125 -0.640625q-0.796875 0 -1.328125 0.625q-0.515625 0.609375 -0.515625 1.859375zm7.6953125 -5.09375l0 -2.03125l2.1875 0l0 2.03125l-2.1875 0zm0 9.421875l0 -8.296875l2.1875 0l0 8.296875l-2.1875 0z" fill-rule="nonzero"></path><path fill="#fff2cc" d="m538.5197 470.97113l135.46454 0l0 39.590546l-135.46454 0z" fill-rule="nonzero"></path><path stroke="#000000" stroke-width="1.0" stroke-linejoin="round" stroke-linecap="butt" d="m538.5197 470.97113l135.46454 0l0 39.590546l-135.46454 0z" fill-rule="nonzero"></path><path fill="#000000" d="m559.3926 495.33112l-2.203125 0l0 -4.234375q0 -1.34375 -0.140625 -1.734375q-0.140625 -0.40625 -0.453125 -0.625q-0.3125 -0.21875 -0.765625 -0.21875q-0.5625 0 -1.015625 0.3125q-0.453125 0.3125 -0.625 0.828125q-0.171875 0.515625 -0.171875 1.90625l0 3.765625l-2.1875 0l0 -8.296875l2.03125 0l0 1.21875q1.09375 -1.40625 2.734375 -1.40625q0.734375 0 1.328125 0.265625q0.609375 0.25 0.90625 0.65625q0.3125 0.40625 0.4375 0.921875q0.125 0.515625 0.125 1.484375l0 5.15625zm7.0234375 -2.640625l2.1875 0.359375q-0.421875 1.203125 -1.328125 1.84375q-0.90625 0.625 -2.28125 0.625q-2.15625 0 -3.203125 -1.421875q-0.8125 -1.125 -0.8125 -2.859375q0 -2.0625 1.078125 -3.21875q1.078125 -1.171875 2.71875 -1.171875q1.859375 0 2.921875 1.21875q1.078125 1.21875 1.03125 3.75l-5.5 0q0.015625 0.96875 0.515625 1.515625q0.515625 0.546875 1.28125 0.546875q0.515625 0 0.859375 -0.28125q0.359375 -0.28125 0.53125 -0.90625zm0.125 -2.21875q-0.015625 -0.953125 -0.484375 -1.453125q-0.46875 -0.5 -1.140625 -0.5q-0.71875 0 -1.1875 0.53125q-0.46875 0.515625 -0.46875 1.421875l3.28125 0zm2.9140625 4.859375l3.0 -4.28125l-2.875 -4.015625l2.6875 0l1.46875 2.28125l1.546875 -2.28125l2.578125 0l-2.8125 3.921875l3.0625 4.375l-2.6875 0l-1.6875 -2.578125l-1.703125 2.578125l-2.578125 0zm13.7578125 -8.296875l0 1.75l-1.5 0l0 3.34375q0 1.015625 0.046875 1.1875q0.046875 0.15625 0.1875 0.265625q0.15625 0.109375 0.375 0.109375q0.3125 0 0.890625 -0.203125l0.1875 1.703125q-0.765625 0.328125 -1.734375 0.328125q-0.59375 0 -1.078125 -0.203125q-0.46875 -0.203125 -0.703125 -0.515625q-0.21875 -0.3125 -0.296875 -0.859375q-0.078125 -0.375 -0.078125 -1.546875l0 -3.609375l-1.0 0l0 -1.75l1.0 0l0 -1.65625l2.203125 -1.28125l0 2.9375l1.5 0zm1.28125 5.234375l0 -2.1875l4.3125 0l0 2.1875l-4.3125 0zm5.375 3.609375l2.5 0.3125q0.0625 0.4375 0.296875 0.59375q0.3125 0.234375 0.984375 0.234375q0.859375 0 1.28125 -0.25q0.296875 -0.171875 0.4375 -0.5625q0.109375 -0.265625 0.109375 -1.015625l0 -1.203125q-0.984375 1.34375 -2.484375 1.34375q-1.671875 0 -2.65625 -1.421875q-0.765625 -1.109375 -0.765625 -2.78125q0 -2.078125 1.0 -3.171875q1.015625 -1.109375 2.5 -1.109375q1.546875 0 2.546875 1.34375l0 -1.15625l2.046875 0l0 7.4375q0 1.484375 -0.25 2.203125q-0.234375 0.734375 -0.671875 1.140625q-0.4375 0.421875 -1.171875 0.65625q-0.71875 0.234375 -1.84375 0.234375q-2.109375 0 -3.0 -0.734375q-0.875 -0.71875 -0.875 -1.828125q0 -0.109375 0.015625 -0.265625zm1.953125 -4.875q0 1.328125 0.515625 1.9375q0.515625 0.609375 1.265625 0.609375q0.796875 0 1.34375 -0.625q0.5625 -0.625 0.5625 -1.859375q0 -1.296875 -0.53125 -1.921875q-0.53125 -0.625 -1.34375 -0.625q-0.78125 0 -1.296875 0.625q-0.515625 0.609375 -0.515625 1.859375zm10.1171875 4.328125l-2.1875 0l0 -8.296875l2.03125 0l0 1.171875q0.53125 -0.828125 0.9375 -1.09375q0.421875 -0.265625 0.953125 -0.265625q0.75 0 1.453125 0.40625l-0.6875 1.921875q-0.546875 -0.359375 -1.03125 -0.359375q-0.453125 0 -0.78125 0.25q-0.3125 0.25 -0.5 0.921875q-0.1875 0.65625 -0.1875 2.78125l0 2.5625zm9.5859375 0l0 -1.25q-0.453125 0.671875 -1.1875 1.0625q-0.734375 0.375 -1.5625 0.375q-0.828125 0 -1.5 -0.359375q-0.65625 -0.375 -0.953125 -1.03125q-0.296875 -0.671875 -0.296875 -1.84375l0 -5.25l2.1875 0l0 3.8125q0 1.75 0.125 2.140625q0.125 0.390625 0.4375 0.625q0.328125 0.234375 0.8125 0.234375q0.5625 0 1.0 -0.3125q0.453125 -0.3125 0.609375 -0.765625q0.171875 -0.453125 0.171875 -2.234375l0 -3.5l2.203125 0l0 8.296875l-2.046875 0zm4.1484375 -8.296875l2.03125 0l0 1.125q1.078125 -1.3125 2.578125 -1.3125q0.796875 0 1.375 0.328125q0.59375 0.328125 0.96875 0.984375q0.546875 -0.65625 1.171875 -0.984375q0.640625 -0.328125 1.359375 -0.328125q0.921875 0 1.546875 0.375q0.640625 0.359375 0.953125 1.078125q0.21875 0.53125 0.21875 1.71875l0 5.3125l-2.1875 0l0 -4.75q0 -1.234375 -0.234375 -1.59375q-0.296875 -0.46875 -0.9375 -0.46875q-0.453125 0 -0.859375 0.28125q-0.40625 0.28125 -0.59375 0.828125q-0.171875 0.546875 -0.171875 1.71875l0 3.984375l-2.203125 0l0 -4.546875q0 -1.21875 -0.125 -1.5625q-0.109375 -0.359375 -0.359375 -0.53125q-0.234375 -0.171875 -0.65625 -0.171875q-0.515625 0 -0.921875 0.28125q-0.40625 0.265625 -0.578125 0.78125q-0.171875 0.515625 -0.171875 1.71875l0 4.03125l-2.203125 0l0 -8.296875zm14.2265625 0l2.03125 0l0 1.125q1.078125 -1.3125 2.578125 -1.3125q0.796875 0 1.375 0.328125q0.59375 0.328125 0.96875 0.984375q0.546875 -0.65625 1.171875 -0.984375q0.640625 -0.328125 1.359375 -0.328125q0.921875 0 1.546875 0.375q0.640625 0.359375 0.953125 1.078125q0.21875 0.53125 0.21875 1.71875l0 5.3125l-2.1875 0l0 -4.75q0 -1.234375 -0.234375 -1.59375q-0.296875 -0.46875 -0.9375 -0.46875q-0.453125 0 -0.859375 0.28125q-0.40625 0.28125 -0.59375 0.828125q-0.171875 0.546875 -0.171875 1.71875l0 3.984375l-2.203125 0l0 -4.546875q0 -1.21875 -0.125 -1.5625q-0.109375 -0.359375 -0.359375 -0.53125q-0.234375 -0.171875 -0.65625 -0.171875q-0.515625 0 -0.921875 0.28125q-0.40625 0.265625 -0.578125 0.78125q-0.171875 0.515625 -0.171875 1.71875l0 4.03125l-2.203125 0l0 -8.296875zm16.039062 2.53125l-2.0 -0.359375q0.34375 -1.203125 1.15625 -1.78125q0.828125 -0.578125 2.4375 -0.578125q1.46875 0 2.1875 0.34375q0.71875 0.34375 1.015625 0.890625q0.296875 0.53125 0.296875 1.953125l-0.03125 2.5625q0 1.09375 0.109375 1.625q0.109375 0.515625 0.390625 1.109375l-2.171875 0q-0.078125 -0.21875 -0.203125 -0.65625q-0.0625 -0.1875 -0.078125 -0.25q-0.5625 0.546875 -1.203125 0.828125q-0.640625 0.265625 -1.375 0.265625q-1.28125 0 -2.015625 -0.6875q-0.734375 -0.703125 -0.734375 -1.765625q0 -0.703125 0.328125 -1.25q0.34375 -0.5625 0.9375 -0.84375q0.609375 -0.296875 1.75 -0.515625q1.546875 -0.296875 2.140625 -0.546875l0 -0.21875q0 -0.625 -0.3125 -0.890625q-0.3125 -0.28125 -1.1875 -0.28125q-0.578125 0 -0.90625 0.234375q-0.328125 0.234375 -0.53125 0.8125zm2.9375 1.78125q-0.421875 0.140625 -1.34375 0.34375q-0.90625 0.1875 -1.1875 0.375q-0.4375 0.296875 -0.4375 0.765625q0 0.46875 0.34375 0.8125q0.34375 0.328125 0.875 0.328125q0.59375 0 1.140625 -0.390625q0.390625 -0.296875 0.515625 -0.734375q0.09375 -0.28125 0.09375 -1.0625l0 -0.4375zm11.8671875 3.984375l-2.203125 0l0 -4.234375q0 -1.34375 -0.140625 -1.734375q-0.140625 -0.40625 -0.453125 -0.625q-0.3125 -0.21875 -0.765625 -0.21875q-0.5625 0 -1.015625 0.3125q-0.453125 0.3125 -0.625 0.828125q-0.171875 0.515625 -0.171875 1.90625l0 3.765625l-2.1875 0l0 -8.296875l2.03125 0l0 1.21875q1.09375 -1.40625 2.734375 -1.40625q0.734375 0 1.328125 0.265625q0.609375 0.25 0.90625 0.65625q0.3125 0.40625 0.4375 0.921875q0.125 0.515625 0.125 1.484375l0 5.15625z" fill-rule="nonzero"></path><path fill="#fff2cc" d="m699.6903 470.97113l40.629883 0l0 39.590546l-40.629883 0z" fill-rule="nonzero"></path><path stroke="#000000" stroke-width="1.0" stroke-linejoin="round" stroke-linecap="butt" d="m699.6903 470.97113l40.629883 0l0 39.590546l-40.629883 0z" fill-rule="nonzero"></path><path fill="#000000" d="m724.2396 495.33112l0 -2.203125l2.203125 0l0 2.203125l-2.203125 0zm-5.328125 0l0 -2.203125l2.203125 0l0 2.203125l-2.203125 0zm-5.328125 0l0 -2.203125l2.1875 0l0 2.203125l-2.1875 0z" fill-rule="nonzero"></path><path fill="#000000" fill-opacity="0.0" d="m446.83203 339.67978l-159.43307 131.3071" fill-rule="nonzero"></path><path stroke="#000000" stroke-width="2.0" stroke-linejoin="round" stroke-linecap="butt" d="m446.83203 339.67978l-150.1702 123.67828" fill-rule="evenodd"></path><path fill="#000000" stroke="#000000" stroke-width="2.0" stroke-linecap="butt" d="m294.56174 460.8081l-4.905884 8.320007l9.10611 -3.2200623z" fill-rule="evenodd"></path><path fill="#000000" fill-opacity="0.0" d="m446.83203 339.67978l0 131.3071" fill-rule="nonzero"></path><path stroke="#000000" stroke-width="2.0" stroke-linejoin="round" stroke-linecap="butt" d="m446.83203 339.67978l0 119.3071" fill-rule="evenodd"></path><path fill="#000000" stroke="#000000" stroke-width="2.0" stroke-linecap="butt" d="m443.52856 458.98688l3.3034668 9.076202l3.3034668 -9.076202z" fill-rule="evenodd"></path><path fill="#000000" fill-opacity="0.0" d="m446.83203 339.67978l159.43304 131.3071" fill-rule="nonzero"></path><path stroke="#000000" stroke-width="2.0" stroke-linejoin="round" stroke-linecap="butt" d="m446.83203 339.67978l150.17017 123.67828" fill-rule="evenodd"></path><path fill="#000000" stroke="#000000" stroke-width="2.0" stroke-linecap="butt" d="m594.90204 465.90805l9.10614 3.2200623l-4.905884 -8.320007z" fill-rule="evenodd"></path><path fill="#000000" fill-opacity="0.0" d="m446.83203 339.67978l273.16534 131.3071" fill-rule="nonzero"></path><path stroke="#000000" stroke-width="2.0" stroke-linejoin="round" stroke-linecap="butt" d="m446.83203 339.67978l262.34998 126.10828" fill-rule="evenodd"></path><path fill="#000000" stroke="#000000" stroke-width="2.0" stroke-linecap="butt" d="m707.75085 468.7654l9.611328 0.95477295l-6.7490234 -6.909485z" fill-rule="evenodd"></path><path fill="#fff2cc" d="m602.5197 300.08923l135.46454 0l0 39.590546l-135.46454 0z" fill-rule="nonzero"></path><path stroke="#000000" stroke-width="1.0" stroke-linejoin="round" stroke-linecap="butt" d="m602.5197 300.08923l135.46454 0l0 39.590546l-135.46454 0z" fill-rule="nonzero"></path><path fill="#000000" d="m624.0739 327.00925l-2.609375 0l0 -5.03125q0 -1.59375 -0.171875 -2.0625q-0.15625 -0.46875 -0.53125 -0.71875q-0.375 -0.265625 -0.90625 -0.265625q-0.6875 0 -1.234375 0.375q-0.53125 0.359375 -0.734375 0.984375q-0.1875 0.609375 -0.1875 2.25l0 4.46875l-2.609375 0l0 -9.859375l2.421875 0l0 1.453125q1.296875 -1.671875 3.25 -1.671875q0.859375 0 1.578125 0.3125q0.71875 0.3125 1.078125 0.796875q0.359375 0.484375 0.5 1.09375q0.15625 0.609375 0.15625 1.75l0 6.125zm8.13031 -3.140625l2.609375 0.4375q-0.5 1.4375 -1.59375 2.1875q-1.078125 0.734375 -2.703125 0.734375q-2.5625 0 -3.796875 -1.671875q-0.96875 -1.34375 -0.96875 -3.40625q0 -2.4375 1.265625 -3.828125q1.28125 -1.390625 3.25 -1.390625q2.1875 0 3.453125 1.453125q1.28125 1.453125 1.234375 4.453125l-6.53125 0q0.015625 1.15625 0.625 1.8125q0.609375 0.640625 1.5 0.640625q0.609375 0 1.03125 -0.328125q0.421875 -0.34375 0.625 -1.09375zm0.15625 -2.625q-0.03125 -1.140625 -0.59375 -1.71875q-0.546875 -0.59375 -1.34375 -0.59375q-0.859375 0 -1.40625 0.625q-0.5625 0.609375 -0.546875 1.6875l3.890625 0zm3.2663574 5.765625l3.5625 -5.078125l-3.40625 -4.78125l3.171875 0l1.75 2.71875l1.828125 -2.71875l3.0625 0l-3.328125 4.671875l3.640625 5.1875l-3.203125 0l-2.0 -3.046875l-2.03125 3.046875l-3.046875 0zm16.141357 -9.859375l0 2.078125l-1.78125 0l0 3.984375q0 1.203125 0.046875 1.40625q0.0625 0.1875 0.234375 0.328125q0.1875 0.125 0.453125 0.125q0.359375 0 1.046875 -0.25l0.21875 2.015625q-0.90625 0.390625 -2.0625 0.390625q-0.703125 0 -1.265625 -0.234375q-0.5625 -0.234375 -0.828125 -0.609375q-0.265625 -0.375 -0.375 -1.015625q-0.078125 -0.453125 -0.078125 -1.84375l0 -4.296875l-1.203125 0l0 -2.078125l1.203125 0l0 -1.953125l2.609375 -1.515625l0 3.46875l1.78125 0zm1.4157715 6.234375l0 -2.609375l5.109375 0l0 2.609375l-5.109375 0zm8.9939575 3.625l-2.609375 0l0 -9.859375l2.421875 0l0 1.40625q0.625 -0.984375 1.109375 -1.296875q0.5 -0.328125 1.140625 -0.328125q0.890625 0 1.71875 0.5l-0.8125 2.265625q-0.65625 -0.421875 -1.21875 -0.421875q-0.546875 0 -0.9375 0.296875q-0.375 0.296875 -0.59375 1.09375q-0.21875 0.78125 -0.21875 3.296875l0 3.046875zm10.463379 -3.140625l2.609375 0.4375q-0.5 1.4375 -1.59375 2.1875q-1.078125 0.734375 -2.703125 0.734375q-2.5625 0 -3.796875 -1.671875q-0.96875 -1.34375 -0.96875 -3.40625q0 -2.4375 1.265625 -3.828125q1.28125 -1.390625 3.25 -1.390625q2.1875 0 3.453125 1.453125q1.28125 1.453125 1.234375 4.453125l-6.53125 0q0.015625 1.15625 0.625 1.8125q0.609375 0.640625 1.5 0.640625q0.609375 0 1.03125 -0.328125q0.421875 -0.34375 0.625 -1.09375zm0.15625 -2.625q-0.03125 -1.140625 -0.59375 -1.71875q-0.546875 -0.59375 -1.34375 -0.59375q-0.859375 0 -1.40625 0.625q-0.5625 0.609375 -0.546875 1.6875l3.890625 0zm4.2819824 6.421875l2.96875 0.359375q0.078125 0.515625 0.34375 0.703125q0.375 0.28125 1.171875 0.28125q1.03125 0 1.53125 -0.296875q0.34375 -0.203125 0.515625 -0.65625q0.125 -0.328125 0.125 -1.203125l0 -1.4375q-1.171875 1.59375 -2.953125 1.59375q-1.984375 0 -3.140625 -1.671875q-0.90625 -1.328125 -0.90625 -3.3125q0 -2.46875 1.1875 -3.78125q1.1875 -1.3125 2.96875 -1.3125q1.828125 0 3.015625 1.609375l0 -1.390625l2.4375 0l0 8.84375q0 1.75 -0.296875 2.609375q-0.28125 0.859375 -0.796875 1.34375q-0.515625 0.5 -1.390625 0.78125q-0.859375 0.28125 -2.1875 0.28125q-2.515625 0 -3.5625 -0.859375q-1.046875 -0.859375 -1.046875 -2.171875q0 -0.140625 0.015625 -0.3125zm2.328125 -5.78125q0 1.5625 0.609375 2.296875q0.609375 0.71875 1.5 0.71875q0.953125 0 1.609375 -0.734375q0.65625 -0.75 0.65625 -2.21875q0 -1.53125 -0.640625 -2.265625q-0.625 -0.75 -1.578125 -0.75q-0.9375 0 -1.546875 0.734375q-0.609375 0.71875 -0.609375 2.21875zm9.302246 -6.0625l0 -2.40625l2.609375 0l0 2.40625l-2.609375 0zm0 11.1875l0 -9.859375l2.609375 0l0 9.859375l-2.609375 0zm4.2770386 -2.8125l2.609375 -0.390625q0.171875 0.75 0.671875 1.15625q0.515625 0.390625 1.4375 0.390625q1.0 0 1.515625 -0.375q0.34375 -0.265625 0.34375 -0.703125q0 -0.296875 -0.1875 -0.484375q-0.1875 -0.1875 -0.875 -0.34375q-3.140625 -0.703125 -4.0 -1.265625q-1.15625 -0.796875 -1.15625 -2.21875q0 -1.28125 1.0 -2.15625q1.015625 -0.875 3.140625 -0.875q2.03125 0 3.0 0.65625q0.984375 0.65625 1.359375 1.953125l-2.453125 0.453125q-0.15625 -0.578125 -0.609375 -0.875q-0.4375 -0.3125 -1.25 -0.3125q-1.03125 0 -1.46875 0.296875q-0.296875 0.203125 -0.296875 0.515625q0 0.28125 0.25 0.484375q0.359375 0.25 2.4375 0.734375q2.078125 0.46875 2.90625 1.15625q0.828125 0.6875 0.828125 1.9375q0 1.359375 -1.140625 2.328125q-1.125 0.96875 -3.34375 0.96875q-2.015625 0 -3.1875 -0.8125q-1.171875 -0.8125 -1.53125 -2.21875zm15.797607 -7.046875l0 2.078125l-1.78125 0l0 3.984375q0 1.203125 0.046875 1.40625q0.0625 0.1875 0.234375 0.328125q0.1875 0.125 0.453125 0.125q0.359375 0 1.046875 -0.25l0.21875 2.015625q-0.90625 0.390625 -2.0625 0.390625q-0.703125 0 -1.265625 -0.234375q-0.5625 -0.234375 -0.828125 -0.609375q-0.265625 -0.375 -0.375 -1.015625q-0.078125 -0.453125 -0.078125 -1.84375l0 -4.296875l-1.203125 0l0 -2.078125l1.203125 0l0 -1.953125l2.609375 -1.515625l0 3.46875l1.78125 0zm4.1970215 9.859375l-2.609375 0l0 -9.859375l2.421875 0l0 1.40625q0.625 -0.984375 1.109375 -1.296875q0.5 -0.328125 1.140625 -0.328125q0.890625 0 1.71875 0.5l-0.8125 2.265625q-0.65625 -0.421875 -1.21875 -0.421875q-0.546875 0 -0.9375 0.296875q-0.375 0.296875 -0.59375 1.09375q-0.21875 0.78125 -0.21875 3.296875l0 3.046875zm3.525879 -9.859375l2.78125 0l2.359375 7.0l2.296875 -7.0l2.703125 0l-3.484375 9.484375l-0.625 1.71875q-0.34375 0.859375 -0.65625 1.3125q-0.296875 0.46875 -0.703125 0.75q-0.40625 0.28125 -1.0 0.4375q-0.59375 0.15625 -1.328125 0.15625q-0.75 0 -1.46875 -0.15625l-0.234375 -2.046875q0.609375 0.125 1.09375 0.125q0.921875 0 1.34375 -0.53125q0.4375 -0.53125 0.671875 -1.359375l-3.75 -9.890625z" fill-rule="nonzero"></path><path fill="#000000" fill-opacity="0.0" d="m602.5197 319.88452l-87.968506 0" fill-rule="nonzero"></path><path stroke="#000000" stroke-width="2.0" stroke-linejoin="round" stroke-linecap="butt" d="m602.5197 319.88452l-75.968506 0" fill-rule="evenodd"></path><path fill="#000000" stroke="#000000" stroke-width="2.0" stroke-linecap="butt" d="m526.5512 316.58105l-9.076233 3.3034668l9.076233 3.3034668z" fill-rule="evenodd"></path><path fill="#000000" fill-opacity="0.0" d="m203.1916 511.1706l530.36224 0l0 82.33075l-530.36224 0z" fill-rule="nonzero"></path><path fill="#ffffff" d="m343.43726 547.50183l-6.421875 -0.546875q1.109375 -3.265625 3.84375 -5.09375q2.75 -1.84375 7.265625 -1.84375q4.703125 0 6.953125 1.90625q2.25 1.890625 2.25 4.625q0 1.09375 -0.203125 2.34375q-0.1875 1.234375 -1.359375 6.515625q-0.96875 4.359375 -0.96875 6.09375q0 1.5625 0.5625 3.46875l-6.40625 0q-0.390625 -1.328125 -0.484375 -2.75q-1.453125 1.609375 -3.328125 2.46875q-1.875 0.859375 -3.78125 0.859375q-3.03125 0 -5.015625 -1.984375q-1.96875 -1.984375 -1.96875 -5.109375q0 -3.484375 2.171875 -5.578125q2.171875 -2.09375 7.75 -2.53125q4.703125 -0.390625 6.28125 -0.9375q0.421875 -1.375 0.421875 -2.203125q0 -1.046875 -0.859375 -1.75q-0.84375 -0.71875 -2.515625 -0.71875q-1.765625 0 -2.796875 0.71875q-1.015625 0.71875 -1.390625 2.046875zm6.265625 6.109375q-0.59375 0.15625 -1.578125 0.296875q-4.953125 0.59375 -6.46875 1.75q-1.078125 0.828125 -1.078125 2.21875q0 1.15625 0.8125 1.953125q0.828125 0.78125 2.1875 0.78125q1.5 0 2.8125 -0.71875q1.3125 -0.734375 1.96875 -1.859375q0.65625 -1.140625 1.171875 -3.546875l0.171875 -0.875zm15.276123 -13.015625l6.25 0l-0.53125 2.5q2.0 -1.640625 3.734375 -2.359375q1.75 -0.71875 3.75 -0.71875q3.828125 0 6.15625 2.640625q2.328125 2.640625 2.328125 7.875q0 6.59375 -4.015625 11.125q-3.4375 3.890625 -8.140625 3.890625q-4.84375 0 -7.328125 -3.921875l-2.640625 12.640625l-6.578125 0l7.015625 -33.671875zm3.96875 13.984375q0 2.84375 1.390625 4.421875q1.390625 1.5625 3.28125 1.5625q1.625 0 3.140625 -1.171875q1.515625 -1.1875 2.5 -3.921875q1.0 -2.75 1.0 -5.09375q0 -2.734375 -1.3125 -4.1875q-1.296875 -1.453125 -3.3125 -1.453125q-1.890625 0 -3.4375 1.34375q-1.546875 1.328125 -2.40625 3.9375q-0.84375 2.609375 -0.84375 4.5625zm24.530731 -13.984375l6.25 0l-0.53125 2.5q2.0 -1.640625 3.734375 -2.359375q1.75 -0.71875 3.75 -0.71875q3.828125 0 6.15625 2.640625q2.328125 2.640625 2.328125 7.875q0 6.59375 -4.015625 11.125q-3.4375 3.890625 -8.140625 3.890625q-4.84375 0 -7.328125 -3.921875l-2.640625 12.640625l-6.578125 0l7.015625 -33.671875zm3.96875 13.984375q0 2.84375 1.390625 4.421875q1.390625 1.5625 3.28125 1.5625q1.625 0 3.140625 -1.171875q1.515625 -1.1875 2.5 -3.921875q1.0 -2.75 1.0 -5.09375q0 -2.734375 -1.3125 -4.1875q-1.296875 -1.453125 -3.3125 -1.453125q-1.890625 0 -3.4375 1.34375q-1.546875 1.328125 -2.40625 3.9375q-0.84375 2.609375 -0.84375 4.5625zm19.608887 10.390625l7.03125 -33.640625l6.5625 0l-7.015625 33.640625l-6.578125 0zm20.025085 -33.640625l6.578125 0l-1.234375 5.96875l-6.578125 0l1.234375 -5.96875zm-1.921875 9.265625l6.578125 0l-5.09375 24.375l-6.59375 0l5.109375 -24.375zm24.384491 15.1875l6.40625 1.046875q-1.59375 4.265625 -4.6875 6.5q-3.09375 2.21875 -7.1875 2.21875q-4.65625 0 -7.390625 -2.78125q-2.71875 -2.78125 -2.71875 -7.640625q0 -3.96875 1.640625 -7.5q1.65625 -3.546875 4.984375 -5.578125q3.328125 -2.03125 7.296875 -2.03125q4.3125 0 6.875 2.25q2.578125 2.25 2.90625 5.921875l-6.265625 0.671875q-0.234375 -2.046875 -1.25 -3.0q-1.015625 -0.96875 -2.671875 -0.96875q-1.90625 0 -3.5625 1.421875q-1.65625 1.421875 -2.546875 4.265625q-0.875 2.828125 -0.875 5.296875q0 2.15625 1.046875 3.328125q1.0625 1.171875 2.65625 1.171875q1.578125 0 3.046875 -1.140625q1.46875 -1.15625 2.296875 -3.453125zm18.713593 -8.28125l-6.421875 -0.546875q1.109375 -3.265625 3.84375 -5.09375q2.75 -1.84375 7.265625 -1.84375q4.703125 0 6.953125 1.90625q2.25 1.890625 2.25 4.625q0 1.09375 -0.203125 2.34375q-0.1875 1.234375 -1.359375 6.515625q-0.96875 4.359375 -0.96875 6.09375q0 1.5625 0.5625 3.46875l-6.40625 0q-0.390625 -1.328125 -0.484375 -2.75q-1.453125 1.609375 -3.328125 2.46875q-1.875 0.859375 -3.78125 0.859375q-3.03125 0 -5.015625 -1.984375q-1.96875 -1.984375 -1.96875 -5.109375q0 -3.484375 2.171875 -5.578125q2.171875 -2.09375 7.75 -2.53125q4.703125 -0.390625 6.28125 -0.9375q0.421875 -1.375 0.421875 -2.203125q0 -1.046875 -0.859375 -1.75q-0.84375 -0.71875 -2.515625 -0.71875q-1.765625 0 -2.796875 0.71875q-1.015625 0.71875 -1.390625 2.046875zm6.265625 6.109375q-0.59375 0.15625 -1.578125 0.296875q-4.953125 0.59375 -6.46875 1.75q-1.078125 0.828125 -1.078125 2.21875q0 1.15625 0.8125 1.953125q0.828125 0.78125 2.1875 0.78125q1.5 0 2.8125 -0.71875q1.3125 -0.734375 1.96875 -1.859375q0.65625 -1.140625 1.171875 -3.546875l0.171875 -0.875zm12.041718 -8.125l1.015625 -4.890625l3.203125 0l0.8125 -3.90625l7.546875 -4.53125l-1.765625 8.4375l4.015625 0l-1.015625 4.890625l-4.03125 0l-2.140625 10.21875q-0.5625 2.765625 -0.5625 3.15625q0 0.765625 0.46875 1.1875q0.484375 0.421875 1.75 0.421875q0.4375 0 2.1875 -0.15625l-1.046875 4.890625q-1.6875 0.34375 -3.484375 0.34375q-3.484375 0 -5.078125 -1.34375q-1.578125 -1.34375 -1.578125 -3.734375q0 -1.125 0.859375 -5.1875l2.03125 -9.796875l-3.1875 0zm20.911926 -14.15625l6.578125 0l-1.234375 5.96875l-6.578125 0l1.234375 -5.96875zm-1.921875 9.265625l6.578125 0l-5.09375 24.375l-6.59375 0l5.109375 -24.375zm8.82196 14.25q0 -6.765625 3.8125 -10.796875q3.828125 -4.03125 10.046875 -4.03125q5.390625 0 8.421875 2.984375q3.03125 2.96875 3.03125 8.0q0 5.90625 -3.796875 10.234375q-3.78125 4.3125 -10.125 4.3125q-3.453125 0 -6.109375 -1.375q-2.65625 -1.390625 -3.96875 -3.90625q-1.3125 -2.53125 -1.3125 -5.421875zm18.78125 -4.703125q0 -2.34375 -1.375 -3.75q-1.359375 -1.40625 -3.515625 -1.40625q-2.140625 0 -3.796875 1.328125q-1.640625 1.3125 -2.5625 3.828125q-0.921875 2.5 -0.921875 4.609375q0 2.625 1.421875 4.171875q1.421875 1.53125 3.578125 1.53125q2.71875 0 4.546875 -2.328125q2.625 -3.28125 2.625 -7.984375zm13.937012 -9.546875l6.25 0l-0.640625 3.171875q2.34375 -2.015625 4.375 -2.875q2.03125 -0.875 4.265625 -0.875q3.015625 0 4.75 1.734375q1.734375 1.71875 1.734375 4.5625q0 1.28125 -0.765625 4.859375l-2.859375 13.796875l-6.59375 0l2.890625 -13.84375q0.640625 -3.09375 0.640625 -3.6875q0 -1.265625 -0.75 -1.984375q-0.734375 -0.71875 -2.0625 -0.71875q-1.453125 0 -3.21875 1.21875q-1.765625 1.203125 -2.78125 3.203125q-0.734375 1.421875 -1.640625 5.8125l-2.09375 10.0l-6.59375 0l5.09375 -24.375zm22.468262 17.5625l6.375 -1.015625q0.859375 2.015625 2.109375 2.859375q1.265625 0.84375 3.453125 0.84375q2.25 0 3.59375 -1.015625q0.953125 -0.6875 0.953125 -1.671875q0 -0.671875 -0.484375 -1.203125q-0.5 -0.5 -2.734375 -1.234375q-5.96875 -1.96875 -7.390625 -3.125q-2.21875 -1.78125 -2.21875 -4.671875q0 -2.890625 2.15625 -4.984375q3.0 -2.921875 8.921875 -2.921875q4.703125 0 7.109375 1.734375q2.421875 1.71875 3.0625 4.65625l-6.09375 1.046875q-0.46875 -1.328125 -1.546875 -1.984375q-1.46875 -0.90625 -3.546875 -0.90625q-2.0625 0 -2.96875 0.6875q-0.90625 0.6875 -0.90625 1.59375q0 0.90625 0.921875 1.515625q0.578125 0.359375 3.6875 1.28125q4.828125 1.390625 6.453125 2.75q2.296875 1.90625 2.296875 4.59375q0 3.46875 -2.921875 6.015625q-2.90625 2.546875 -8.203125 2.546875q-5.28125 0 -8.171875 -1.9375q-2.875 -1.953125 -3.90625 -5.453125z" fill-rule="nonzero"></path></g></svg>

